REM MD5 a56f65a8668734852409f68cf64b8f9d
FILE "Official U.S. PlayStation Magazine Demo Disc 11 (USA).bin" BINARY
  TRACK 01 MODE2/2352
    INDEX 01 00:00:00
  TRACK 02 AUDIO
    INDEX 00 29:27:37
    INDEX 01 29:29:37
  TRACK 03 AUDIO
    INDEX 00 32:21:20
    INDEX 01 32:23:20
  TRACK 04 AUDIO
    INDEX 00 35:38:74
    INDEX 01 35:40:74
REM LEADOUT 35:46:70
